<svg width="1280" height="1329" viewBox="0 0 1280 1329" fill="none" xmlns="http://www.w3.org/2000/svg">
<rect width="1280" height="1329" fill="#0B090A"/>
<path d="M1121.19 309.909C1062.27 264.386 1000.45 262.789 817.879 416.131C812.302 414.267 796.931 422.52 780.056 470.439C758.962 530.338 822.97 559.888 906.617 573.465C990.263 587.043 1018.63 505.58 1111.73 523.15C1204.84 540.721 1180.11 355.433 1121.19 309.909Z" fill="#414141" fill-opacity="0.14"/>
<path d="M572.77 284.224C443.264 119.748 307.363 113.977 -93.9454 668.002C-106.203 661.27 -139.992 691.087 -177.085 864.22C-223.451 1080.64 -82.7536 1187.4 101.113 1236.46C284.979 1285.51 347.334 991.184 551.985 1054.67C756.636 1118.15 702.276 448.701 572.77 284.224Z" fill="#414141" fill-opacity="0.19"/>
<path d="M1505.77 683.224C1376.26 518.748 1240.36 512.977 839.055 1067C826.797 1060.27 793.008 1090.09 755.915 1263.22C709.549 1479.64 850.246 1586.4 1034.11 1635.46C1217.98 1684.51 1280.33 1390.18 1484.99 1453.67C1689.64 1517.15 1635.28 847.701 1505.77 683.224Z" fill="#414141" fill-opacity="0.19"/>
<g clip-path="url(#clip0_47_324)">
<path d="M509.76 258C509.16 258.001 508.576 257.811 508.097 257.459C507.618 257.108 507.27 256.613 507.105 256.052C506.941 255.49 506.969 254.891 507.185 254.346C507.401 253.802 507.794 253.34 508.304 253.033C508.693 252.796 547.314 229.246 556.968 205.15C557.24 204.496 557.766 203.973 558.432 203.693C559.098 203.414 559.85 203.401 560.525 203.658C561.2 203.915 561.744 204.42 562.04 205.065C562.335 205.709 562.358 206.441 562.104 207.102C551.78 232.879 512.861 256.598 511.21 257.581C510.776 257.851 510.274 257.996 509.76 258Z" fill="#414141"/>
<path d="M518.782 250.362L518.736 247.435C518.628 233.261 522.619 219.343 530.253 207.275L531.08 206.091H541.572L539.028 198.081L539.835 197.007C555.303 176.241 581.991 169.867 592.747 168.089C593.68 167.94 594.636 167.999 595.541 168.262C596.447 168.526 597.28 168.986 597.976 169.609C598.672 170.232 599.213 171.001 599.559 171.858C599.905 172.715 600.047 173.637 599.973 174.555C595.035 241.936 522.496 250.005 521.762 250.072L518.782 250.362ZM534.074 211.461C528.165 221.489 524.805 232.748 524.276 244.299C537.809 242.121 590.39 230.068 594.487 174.163C594.499 174.047 594.482 173.931 594.439 173.823C594.396 173.714 594.327 173.618 594.239 173.54C594.167 173.472 594.08 173.421 593.984 173.393C593.887 173.365 593.786 173.36 593.687 173.379C583.791 175.011 559.524 180.768 545.131 199.088L547.27 205.879C547.474 206.524 547.519 207.207 547.402 207.872C547.286 208.538 547.01 209.167 546.598 209.71C546.187 210.253 545.65 210.694 545.031 210.998C544.412 211.302 543.729 211.461 543.036 211.461H534.074Z" fill="#414141"/>
</g>
<g clip-path="url(#clip1_47_324)">
<path d="M1076.53 137.344C1077.95 137.344 1079.09 136.196 1079.09 134.781C1079.09 133.366 1077.95 132.219 1076.53 132.219C1075.12 132.219 1073.97 133.366 1073.97 134.781C1073.97 136.196 1075.12 137.344 1076.53 137.344Z" fill="#414141"/>
<path d="M1062.44 156.562L1049.62 171.938" stroke="#414141" stroke-width="8" stroke-linecap="round" stroke-linejoin="round"/>
<path d="M1090.62 143.75V151.437C1090.62 159.593 1087.39 167.414 1081.62 173.181C1075.85 178.948 1068.03 182.187 1059.88 182.187H1026.56L1057.31 143.75V137.344C1057.32 133.297 1058.8 129.392 1061.47 126.357C1064.15 123.322 1067.84 121.364 1071.85 120.85C1075.87 120.336 1079.93 121.301 1083.28 123.564C1086.64 125.827 1089.05 129.234 1090.08 133.148L1098.31 138.625L1090.62 143.75Z" stroke="#414141" stroke-width="3" stroke-linecap="round" stroke-linejoin="round"/>
</g>
<g clip-path="url(#clip2_47_324)">
<path d="M299.601 495.333C300.568 495.891 301.803 495.56 302.361 494.594C302.919 493.627 302.588 492.391 301.622 491.833C300.655 491.276 299.42 491.607 298.862 492.573C298.304 493.539 298.635 494.775 299.601 495.333Z" fill="#414141"/>
<path d="M282.401 502.9L267.59 508.348" stroke="#414141" stroke-width="2" stroke-linecap="round" stroke-linejoin="round"/>
<path d="M306.7 505.264L303.669 510.513C300.454 516.082 295.158 520.146 288.947 521.81C282.735 523.475 276.117 522.603 270.548 519.388L247.801 506.255L283.952 492.131L286.478 487.756C288.078 484.996 290.628 482.912 293.651 481.895C296.675 480.877 299.966 480.995 302.909 482.226C305.853 483.458 308.247 485.718 309.645 488.586C311.043 491.454 311.35 494.732 310.508 497.81L313.97 504.795L306.7 505.264Z" stroke="#414141" stroke-width="2" stroke-linecap="round" stroke-linejoin="round"/>
</g>
<g clip-path="url(#clip3_47_324)">
<path d="M1038.76 713C1038.16 713.001 1037.58 712.811 1037.1 712.459C1036.62 712.108 1036.27 711.613 1036.11 711.052C1035.94 710.49 1035.97 709.891 1036.19 709.346C1036.4 708.802 1036.79 708.34 1037.3 708.033C1037.69 707.796 1076.31 684.246 1085.97 660.15C1086.24 659.496 1086.77 658.973 1087.43 658.693C1088.1 658.414 1088.85 658.401 1089.52 658.658C1090.2 658.915 1090.74 659.42 1091.04 660.065C1091.34 660.709 1091.36 661.441 1091.1 662.102C1080.78 687.879 1041.86 711.598 1040.21 712.581C1039.78 712.851 1039.27 712.996 1038.76 713Z" fill="#414141"/>
<path d="M1047.78 705.362L1047.74 702.435C1047.63 688.261 1051.62 674.343 1059.25 662.275L1060.08 661.091H1070.57L1068.03 653.081L1068.84 652.007C1084.3 631.241 1110.99 624.867 1121.75 623.089C1122.68 622.94 1123.64 622.999 1124.54 623.262C1125.45 623.526 1126.28 623.986 1126.98 624.609C1127.67 625.232 1128.21 626.001 1128.56 626.858C1128.91 627.715 1129.05 628.637 1128.97 629.555C1124.04 696.936 1051.5 705.005 1050.76 705.072L1047.78 705.362ZM1063.07 666.461C1057.16 676.489 1053.81 687.748 1053.28 699.299C1066.81 697.121 1119.39 685.068 1123.49 629.163C1123.5 629.047 1123.48 628.931 1123.44 628.823C1123.4 628.714 1123.33 628.618 1123.24 628.54C1123.17 628.472 1123.08 628.421 1122.98 628.393C1122.89 628.365 1122.79 628.36 1122.69 628.379C1112.79 630.011 1088.52 635.768 1074.13 654.088L1076.27 660.879C1076.47 661.524 1076.52 662.207 1076.4 662.872C1076.29 663.538 1076.01 664.167 1075.6 664.71C1075.19 665.253 1074.65 665.694 1074.03 665.998C1073.41 666.302 1072.73 666.461 1072.04 666.461H1063.07Z" fill="#414141"/>
</g>
<g clip-path="url(#clip4_47_324)">
<path d="M669.76 1084C669.16 1084 668.576 1083.81 668.097 1083.46C667.618 1083.11 667.27 1082.61 667.105 1082.05C666.941 1081.49 666.969 1080.89 667.185 1080.35C667.401 1079.8 667.794 1079.34 668.304 1079.03C668.693 1078.8 707.314 1055.25 716.968 1031.15C717.24 1030.5 717.766 1029.97 718.432 1029.69C719.098 1029.41 719.85 1029.4 720.525 1029.66C721.2 1029.91 721.744 1030.42 722.04 1031.06C722.335 1031.71 722.358 1032.44 722.104 1033.1C711.78 1058.88 672.861 1082.6 671.21 1083.58C670.776 1083.85 670.274 1084 669.76 1084Z" fill="#414141"/>
<path d="M678.782 1076.36L678.736 1073.44C678.628 1059.26 682.619 1045.34 690.253 1033.27L691.08 1032.09H701.572L699.028 1024.08L699.835 1023.01C715.303 1002.24 741.991 995.867 752.747 994.089C753.68 993.94 754.636 993.999 755.541 994.262C756.447 994.526 757.28 994.986 757.976 995.609C758.672 996.232 759.213 997.001 759.559 997.858C759.905 998.715 760.047 999.637 759.973 1000.55C755.035 1067.94 682.496 1076 681.762 1076.07L678.782 1076.36ZM694.074 1037.46C688.165 1047.49 684.805 1058.75 684.276 1070.3C697.809 1068.12 750.39 1056.07 754.487 1000.16C754.499 1000.05 754.482 999.931 754.439 999.823C754.396 999.714 754.327 999.618 754.239 999.54C754.167 999.472 754.08 999.421 753.984 999.393C753.887 999.365 753.786 999.36 753.687 999.379C743.791 1001.01 719.524 1006.77 705.131 1025.09L707.27 1031.88C707.474 1032.52 707.519 1033.21 707.402 1033.87C707.286 1034.54 707.01 1035.17 706.598 1035.71C706.187 1036.25 705.65 1036.69 705.031 1037C704.412 1037.3 703.729 1037.46 703.036 1037.46H694.074Z" fill="#414141"/>
</g>
<g clip-path="url(#clip5_47_324)">
<path d="M1087.95 1145C1087.74 1145 1087.54 1144.93 1087.38 1144.81C1087.21 1144.69 1087.09 1144.52 1087.04 1144.33C1086.98 1144.14 1086.99 1143.93 1087.06 1143.74C1087.14 1143.55 1087.27 1143.4 1087.45 1143.29C1087.58 1143.21 1100.87 1135.1 1104.19 1126.8C1104.29 1126.57 1104.47 1126.39 1104.7 1126.29C1104.93 1126.2 1105.18 1126.19 1105.42 1126.28C1105.65 1126.37 1105.84 1126.54 1105.94 1126.77C1106.04 1126.99 1106.05 1127.24 1105.96 1127.47C1102.41 1136.35 1089.02 1144.52 1088.45 1144.86C1088.3 1144.95 1088.13 1145 1087.95 1145Z" fill="#414141"/>
<path d="M1091.05 1142.37L1091.04 1141.36C1091 1136.48 1092.37 1131.68 1095 1127.53L1095.29 1127.12H1098.9L1098.02 1124.36L1098.3 1123.99C1103.62 1116.84 1112.8 1114.64 1116.5 1114.03C1116.83 1113.98 1117.15 1114 1117.47 1114.09C1117.78 1114.18 1118.06 1114.34 1118.3 1114.55C1118.54 1114.77 1118.73 1115.03 1118.85 1115.33C1118.97 1115.62 1119.02 1115.94 1118.99 1116.26C1117.29 1139.47 1092.33 1142.25 1092.08 1142.27L1091.05 1142.37ZM1096.32 1128.97C1094.28 1132.42 1093.13 1136.3 1092.94 1140.28C1097.6 1139.53 1115.69 1135.38 1117.1 1116.12C1117.11 1116.08 1117.1 1116.04 1117.09 1116.01C1117.07 1115.97 1117.05 1115.93 1117.02 1115.91C1116.99 1115.88 1116.96 1115.87 1116.93 1115.86C1116.9 1115.85 1116.86 1115.85 1116.83 1115.85C1113.42 1116.42 1105.07 1118.4 1100.12 1124.71L1100.86 1127.05C1100.93 1127.27 1100.94 1127.5 1100.9 1127.73C1100.86 1127.96 1100.77 1128.18 1100.63 1128.37C1100.48 1128.55 1100.3 1128.71 1100.09 1128.81C1099.87 1128.92 1099.64 1128.97 1099.4 1128.97H1096.32Z" fill="#414141"/>
</g>
<g clip-path="url(#clip6_47_324)">
<path d="M343.189 120.016C343.136 120.215 343.021 120.392 342.861 120.52C342.702 120.648 342.506 120.72 342.305 120.724C342.103 120.729 341.907 120.666 341.745 120.546C341.583 120.425 341.464 120.254 341.407 120.057C341.363 119.907 336.967 104.971 329.81 99.6141C329.617 99.4652 329.489 99.2437 329.456 98.9976C329.422 98.7514 329.485 98.5004 329.63 98.2989C329.776 98.0974 329.992 97.9615 330.233 97.9208C330.474 97.88 330.72 97.9376 330.917 98.0812C338.574 103.81 342.999 118.86 343.179 119.497C343.23 119.665 343.234 119.845 343.189 120.016Z" fill="#414141"/>
<path d="M341.452 116.336L340.474 116.091C335.748 114.863 331.473 112.296 328.138 108.683L327.818 108.302L328.752 104.815L325.861 104.947L325.575 104.582C320.044 97.5903 320.299 88.1521 320.666 84.4185C320.699 84.0952 320.804 83.7829 320.972 83.5053C321.141 83.2278 321.368 82.9921 321.637 82.8163C321.907 82.6405 322.211 82.529 322.527 82.4904C322.842 82.4518 323.162 82.4871 323.461 82.5935C345.439 90.2414 341.664 115.07 341.621 115.32L341.452 116.336ZM329.871 107.786C332.681 110.644 336.128 112.764 339.924 113.97C340.404 109.278 341.077 90.7273 322.842 84.3819C322.804 84.3676 322.764 84.3626 322.724 84.3673C322.684 84.372 322.646 84.3862 322.612 84.4088C322.583 84.4265 322.559 84.4511 322.541 84.4805C322.523 84.5099 322.512 84.5433 322.51 84.5777C322.171 88.0124 321.926 96.5911 326.739 103.008L329.189 102.902C329.422 102.892 329.653 102.938 329.864 103.036C330.075 103.134 330.26 103.282 330.404 103.467C330.548 103.652 330.647 103.87 330.693 104.103C330.739 104.336 330.731 104.577 330.669 104.807L329.871 107.786Z" fill="#414141"/>
</g>
<path d="M817.864 499.385C777.24 488.5 807.33 424.676 835.836 432.314C864.341 439.952 858.488 510.271 817.864 499.385Z" stroke="#414141" stroke-width="4" stroke-miterlimit="10"/>
<path d="M812.783 455.545C816.751 448.358 822.623 442.906 828.16 441.449" stroke="#414141" stroke-width="4" stroke-miterlimit="10"/>
<path d="M1237.21 294.917C1200.79 315.945 1176.93 249.538 1202.49 234.782C1228.05 220.027 1273.63 273.888 1237.21 294.917Z" stroke="#414141" stroke-width="4" stroke-miterlimit="10"/>
<path d="M1202.62 267.51C1200.34 259.622 1200.64 251.615 1203.52 246.669" stroke="#414141" stroke-width="4" stroke-miterlimit="10"/>
<path d="M212.344 753.052C175.921 774.08 152.068 707.672 177.625 692.917C203.182 678.161 248.766 732.023 212.344 753.052Z" stroke="#414141" stroke-width="4" stroke-miterlimit="10"/>
<path d="M177.751 725.645C175.475 717.757 175.772 709.749 178.656 704.804" stroke="#414141" stroke-width="4" stroke-miterlimit="10"/>
<path d="M184.55 1288.8C142.614 1285.61 160.382 1217.33 189.808 1219.56C219.234 1221.79 226.486 1291.98 184.55 1288.8Z" stroke="#414141" stroke-width="4" stroke-miterlimit="10"/>
<path d="M171.449 1246.65C174.02 1238.86 178.782 1232.41 183.954 1229.96" stroke="#414141" stroke-width="4" stroke-miterlimit="10"/>
<g clip-path="url(#clip7_47_324)">
<path d="M20.5312 156.344C21.9465 156.344 23.0938 155.196 23.0938 153.781C23.0938 152.366 21.9465 151.219 20.5312 151.219C19.116 151.219 17.9688 152.366 17.9688 153.781C17.9688 155.196 19.116 156.344 20.5312 156.344Z" fill="#414141"/>
<path d="M6.4375 175.562L-6.375 190.938" stroke="#414141" stroke-width="8" stroke-linecap="round" stroke-linejoin="round"/>
<path d="M34.625 162.75V170.437C34.625 178.593 31.3853 186.414 25.6185 192.181C19.8518 197.948 12.0304 201.187 3.875 201.187H-29.4375L1.3125 162.75V156.344C1.31929 152.297 2.79875 148.392 5.47458 145.357C8.1504 142.322 11.8396 140.364 15.8531 139.85C19.8666 139.336 23.93 140.301 27.2842 142.564C30.6385 144.827 33.0543 148.234 34.0805 152.148L42.3125 157.625L34.625 162.75Z" stroke="#414141" stroke-width="3" stroke-linecap="round" stroke-linejoin="round"/>
</g>
<g clip-path="url(#clip8_47_324)">
<path d="M11.7596 429C11.1598 429.001 10.5761 428.811 10.0971 428.459C9.61813 428.108 9.26994 427.613 9.10534 427.052C8.94073 426.49 8.96877 425.891 9.18509 425.346C9.40141 424.802 9.79419 424.34 10.304 424.033C10.6927 423.796 49.3141 400.246 58.968 376.15C59.2405 375.496 59.7664 374.973 60.4321 374.693C61.0978 374.414 61.8496 374.401 62.5248 374.658C63.2 374.915 63.7442 375.42 64.0398 376.065C64.3353 376.709 64.3583 377.441 64.1038 378.102C53.78 403.879 14.8609 427.598 13.2096 428.581C12.7762 428.851 12.2737 428.996 11.7596 429Z" fill="#414141"/>
<path d="M20.7824 421.362L20.7355 418.435C20.628 404.261 24.6194 390.343 32.2529 378.275L33.08 377.091H43.572L41.0276 369.081L41.8353 368.007C57.3031 347.241 83.9907 340.867 94.7474 339.089C95.6801 338.94 96.6355 338.999 97.5413 339.262C98.4471 339.526 99.2796 339.986 99.9757 340.609C100.672 341.232 101.213 342.001 101.559 342.858C101.905 343.715 102.047 344.637 101.973 345.555C97.0354 412.936 24.4956 421.005 23.7623 421.072L20.7824 421.362ZM36.0738 382.461C30.1646 392.489 26.8052 403.748 26.2764 415.299C39.8091 413.121 92.3903 401.068 96.4868 345.163C96.4986 345.047 96.4824 344.931 96.4392 344.823C96.3961 344.714 96.3274 344.618 96.2387 344.54C96.1671 344.472 96.0796 344.421 95.9835 344.393C95.8875 344.365 95.7858 344.36 95.6874 344.379C85.7908 346.011 61.5236 351.768 47.1309 370.088L49.2701 376.879C49.4736 377.524 49.5189 378.207 49.4023 378.872C49.2857 379.538 49.0103 380.167 48.5985 380.71C48.1866 381.253 47.6498 381.694 47.031 381.998C46.4122 382.302 45.7288 382.461 45.0357 382.461H36.0738Z" fill="#414141"/>
</g>
<defs>
<clipPath id="clip0_47_324">
<rect width="93" height="90" fill="white" transform="translate(507 168)"/>
</clipPath>
<clipPath id="clip1_47_324">
<rect width="82" height="82" fill="white" transform="translate(1024 113)"/>
</clipPath>
<clipPath id="clip2_47_324">
<rect width="64.6558" height="64.6558" fill="white" transform="translate(273.328 458) rotate(30)"/>
</clipPath>
<clipPath id="clip3_47_324">
<rect width="93" height="90" fill="white" transform="translate(1036 623)"/>
</clipPath>
<clipPath id="clip4_47_324">
<rect width="93" height="90" fill="white" transform="translate(667 994)"/>
</clipPath>
<clipPath id="clip5_47_324">
<rect width="32" height="31" fill="white" transform="translate(1087 1114)"/>
</clipPath>
<clipPath id="clip6_47_324">
<rect width="32" height="31" fill="white" transform="translate(313 112.91) rotate(-75)"/>
</clipPath>
<clipPath id="clip7_47_324">
<rect width="82" height="82" fill="white" transform="translate(-32 132)"/>
</clipPath>
<clipPath id="clip8_47_324">
<rect width="93" height="90" fill="white" transform="translate(9 339)"/>
</clipPath>
</defs>
</svg>
