<svg width="256" height="256" viewBox="0 0 256 256" fill="none" xmlns="http://www.w3.org/2000/svg">
<g clip-path="url(#clip0_103_19)">
<path d="M0.5 0.5H255.5V255.5H0.5V0.5Z" fill="#151515" stroke="#D9D9D9"/>
<path d="M160.5 73C165.194 73 169 69.1944 169 64.5C169 59.8056 165.194 56 160.5 56C155.806 56 152 59.8056 152 64.5C152 69.1944 155.806 73 160.5 73Z" fill="#242424"/>
<path d="M120 136L80 184" stroke="#242424" stroke-width="16" stroke-linecap="round" stroke-linejoin="round"/>
<path d="M208 96V120C208 145.461 197.886 169.879 179.882 187.882C161.879 205.886 137.461 216 112 216H8L104 96V76C104.021 63.3677 108.64 51.1751 116.994 41.6994C125.348 32.2237 136.865 26.1129 149.395 24.5084C161.925 22.9039 174.611 25.9153 185.082 32.9803C195.554 40.0453 203.096 50.6807 206.3 62.9L232 80L208 96Z" stroke="#242424" stroke-width="5" stroke-linecap="round" stroke-linejoin="round"/>
</g>
<defs>
<clipPath id="clip0_103_19">
<rect width="256" height="256" fill="white"/>
</clipPath>
</defs>
</svg>
